<?xml version="1.0" standalone="no"?>
<!DOCTYPE svg PUBLIC "-//W3C//DTD SVG 20010904//EN"
 "http://www.w3.org/TR/2001/REC-SVG-20010904/DTD/svg10.dtd">
<svg version="1.0" xmlns="http://www.w3.org/2000/svg"
 width="256.000000pt" height="256.000000pt" viewBox="0 0 256.000000 256.000000"
 preserveAspectRatio="xMidYMid meet">
<metadata>
Created by potrace 1.11, written by Peter Selinger 2001-2013
</metadata>
<g transform="translate(0.000000,256.000000) scale(0.100000,-0.100000)"
fill="#000000" stroke="none">
<path d="M1178 2365 c-2 -2 -28 -6 -57 -10 -319 -36 -639 -261 -804 -565 -186
-340 -171 -777 38 -1100 308 -478 915 -643 1420 -387 283 143 495 414 570 727
24 101 29 338 9 439 -44 228 -154 432 -316 590 -124 121 -323 237 -458 266 -8
1 -34 8 -56 14 -23 6 -57 14 -75 17 -39 6 -266 13 -271 9z m168 -885 c83 -31
139 -99 150 -182 9 -62 -10 -118 -57 -172 -54 -62 -125 -84 -207 -66 -115 26
-192 150 -162 262 12 43 41 92 70 116 51 43 149 63 206 42z"/>
</g>
</svg>
